arm26_elbow_motion
version=1
nRows=238
nColumns=2
inDegrees=no
endheader
time	r_elbow_flex
11.775405	1.84967607
11.823632	1.82864013
11.842605	1.80747272
11.847178	1.78568867
11.867398	1.76287646
11.872555	1.74012089
11.895166	1.71817454
11.911164	1.69608841
11.920155	1.67455261
11.928785	1.65291191
11.945133	1.63157410
11.955766	1.61065244
11.979374	1.58921875
12.004561	1.56816811
12.015352	1.54658233
12.036168	1.52415589
12.062146	1.50142773
12.091528	1.47816371
12.100528	1.45413894
12.124167	1.42984774
12.132519	1.40519472
12.159268	1.37907532
12.180737	1.35097520
12.192770	1.32227631
12.208788	1.29362970
12.218197	1.26464309
12.240608	1.23311243
12.256459	1.19812457
12.280254	1.16118053
12.289883	1.12388984
12.297790	1.08457480
12.314512	1.04057599
12.328728	0.99211154
12.357785	0.94244891
12.363488	0.89365326
12.414580	0.84491360
12.423339	0.79440466
12.470582	0.74342829
12.480152	0.69512339
12.495070	0.64960794
12.506705	0.60535577
12.515160	0.56142295
12.519167	0.51864568
12.527986	0.47891060
12.572609	0.44260083
12.588816	0.40942412
12.599074	0.37928653
12.613794	0.35276488
12.622231	0.33051778
12.664335	0.31306689
12.679290	0.29977208
12.696041	0.28928686
12.716145	0.28123588
12.722629	0.27567028
12.761624	0.27212317
12.797395	0.27000867
12.812773	0.26883203
12.836948	0.26747637
12.845766	0.27141770
12.856143	0.27774555
12.880393	0.28763725
12.889115	0.30118752
12.900186	0.31854773
12.907027	0.34014722
12.980675	0.36734178
12.989974	0.40506185
13.010675	0.45204294
13.018942	0.50165967
13.041771	0.55393926
13.060797	0.60863067
13.075011	0.66496540
13.082732	0.72219169
13.106692	0.76996260
13.122708	0.81229837
13.134890	0.85450707
13.144931	0.89585172
13.159173	0.93654285
13.169016	0.97743631
13.175827	1.01902938
13.187528	1.06072629
13.197808	1.10213388
13.205752	1.14343522
13.229229	1.18516468
13.244651	1.22737802
13.260812	1.26921326
13.280085	1.30989282
13.287478	1.34966389
13.296057	1.38907197
13.321343	1.42786149
13.332286	1.46589414
13.397499	1.50298080
13.412780	1.53885280
13.421458	1.57378070
13.429370	1.60861103
13.447536	1.64288149
13.484754	1.67593054
13.517869	1.70740862
13.542567	1.73631782
13.560420	1.76107560
13.573053	1.78449592
13.589533	1.80678242
13.606410	1.83252725
13.612853	1.85754460
13.620881	1.88177913
13.628402	1.90564515
13.645057	1.93128529
13.653345	1.95565749
13.669409	1.97786226
13.677824	1.99356739
13.720569	2.00732318
13.736386	2.01945840
13.747846	2.03038095
13.756265	2.04020794
13.778487	2.04919289
13.795934	2.05760037
13.806897	2.06557585
13.845318	2.07339490
13.853630	2.08064644
13.861373	2.08691646
13.869996	2.09149284
13.880535	2.09410777
13.897081	2.09438394
13.907426	2.09204678
13.929542	2.08696113
13.946148	2.07949808
13.954202	2.07006422
13.977746	2.05895244
13.994962	2.04645043
14.011009	2.03311359
14.027899	2.01910693
14.038882	2.00439958
14.044265	1.98904954
14.076321	1.97355020
14.084950	1.95784836
14.110607	1.94175684
14.141899	1.92502300
14.157529	1.90767957
14.180773	1.88998888
14.210802	1.87214890
14.226910	1.85350673
14.236482	1.83419832
14.245585	1.81504382
14.257314	1.79644423
14.278550	1.77792154
14.285805	1.75912879
14.311097	1.73961171
14.318586	1.72031776
14.328532	1.70186020
14.344918	1.68339727
14.361386	1.66397791
14.369566	1.64357136
14.380678	1.62328493
14.403385	1.60361361
14.429106	1.58185545
14.435652	1.55804961
14.460150	1.53301634
14.479407	1.50783183
14.490389	1.48224467
14.504662	1.45582319
14.520320	1.42868838
14.528845	1.40307973
14.553687	1.37807721
14.578073	1.35160684
14.595384	1.32326771
14.611364	1.29398811
14.647924	1.26405239
14.653468	1.23240267
14.661926	1.19752301
14.679220	1.15957340
14.688122	1.12038792
14.705735	1.08046952
14.730405	1.03939730
14.747801	0.99538828
14.764699	0.94846578
14.773498	0.90077675
14.794071	0.85321382
14.811715	0.80536805
14.828571	0.75828279
14.838430	0.71263015
14.853958	0.66892407
14.880515	0.62833479
14.896485	0.59102289
14.913440	0.55684530
14.923866	0.52565691
14.936950	0.49593344
14.954113	0.46808513
14.971323	0.44341453
14.979621	0.42154774
15.010736	0.40175963
15.036217	0.38394721
15.045432	0.36827967
15.086032	0.35550797
15.125136	0.34553091
15.141080	0.33758887
15.157590	0.33174350
15.172475	0.32811841
15.188527	0.32672014
15.202888	0.32763519
15.216569	0.33052152
15.229365	0.33533740
15.236784	0.34289705
15.246327	0.35381891
15.261495	0.36884001
15.310438	0.38795195
15.326720	0.41007879
15.343911	0.43648464
15.355292	0.46828554
15.371301	0.50429921
15.389055	0.54348434
15.405177	0.58485177
15.428529	0.62830202
15.444920	0.67517732
15.453195	0.72377037
15.463925	0.77217222
15.479127	0.82109239
15.495816	0.87077091
15.512582	0.92053049
15.520993	0.96981227
15.543251	1.01845212
15.551737	1.06568746
15.566401	1.11204502
15.581547	1.15760908
15.599285	1.20193089
15.618148	1.24545564
15.631851	1.28804956
15.643601	1.32956594
15.670988	1.37068384
15.681729	1.41049960
15.698750	1.44847231
15.705266	1.48534574
15.720844	1.52195090
15.736744	1.55806262
15.747020	1.59341754
15.757529	1.62872687
15.780793	1.66524388
15.797828	1.70225450
15.815254	1.73767811
15.826375	1.77088103
